M48
;Layer_Color=9474304
;FILE_FORMAT=4:4
METRIC,LZ
;TYPE=PLATED
T1F00S00C0.4000
T2F00S00C0.7000
T3F00S00C0.7620
T4F00S00C0.8500
T5F00S00C1.0000
T6F00S00C2.0000
%
T01
X0128778Y0067818
X0130302Y0077216
X0141732Y0091948
X0160401Y0086233
T02
X0123952Y0080391
X0126492
X0129032
X0131572
X0134112
X0136652
X0139192
X0141732
X0144272
X0146812
X0149352
X0151892
X0154432
X0156972
Y0088011
X0154432
X0151892
X0149352
X0146812
X0144272
X0141732
X0139192
X0136652
X0134112
X0131572
X0129032
X0126492
X0123952
T03
X0167418Y0081407
X0169418
Y0083907
X0167418
T04
X0159512Y0053721
X0164846
Y0061341
X0159512
X0154178
X0148209
X0143129Y0061214
X0137668
Y0053594
X0143129
X0148209Y0053721
X0154178
X012573Y0053467
X0120269
Y0061087
X012573
X0118491Y0105156
X0112903
X0107569
Y0112776
X0112903
X0118491
X0124333
X012954
X0135382Y0112903
Y0105283
X012954Y0105156
X0124333
X0145288Y0105283
X015113
X0156591
Y0112903
X015113
X0145288
X0162179
X0167767
Y0105283
X0162179
T05
X0159512Y0066802
Y0069317
X0164973Y0069215
Y00667
X0154051Y0066802
Y0069317
X014859Y0069342
Y0066827
X0143129
Y0069342
X0137668
Y0066827
X0133858Y0072009
Y0074549
X0131318
Y0072009
X0128778
Y0074549
X0125857Y0069063
Y0066548
X0120269
Y0069063
X0118618Y0097053
Y0099568
X011303
Y0097053
X0107442Y0097155
Y009967
X0124206Y0099543
Y0097028
X0129667Y0096901
Y0099416
X0135382Y0099162
Y0096647
X0145288Y0096774
Y0099289
X015113Y0099187
Y0096672
X0156591
Y0099187
X0162179Y0099035
Y009652
X0167767Y0096418
Y0098933
T06
X0172168Y0075907
Y0089407
M30
